<?xml version="1.0" standalone="no"?>
<!DOCTYPE svg PUBLIC "-//W3C//DTD SVG 20010904//EN"
 "http://www.w3.org/TR/2001/REC-SVG-20010904/DTD/svg10.dtd">
<svg version="1.0" xmlns="http://www.w3.org/2000/svg"
 width="401.000000pt" height="401.000000pt" viewBox="0 0 401.000000 401.000000"
 preserveAspectRatio="xMidYMid meet">
<metadata>
Created by potrace 1.11, written by Peter Selinger 2001-2013
</metadata>
<g transform="translate(0.000000,401.000000) scale(0.100000,-0.100000)"
fill="#000000" stroke="none">
<path d="M2008 4005 c-2 -2 -40 -5 -84 -6 -71 -2 -156 -10 -234 -23 -14 -3
-43 -7 -65 -11 -22 -3 -47 -8 -55 -11 -8 -3 -26 -8 -40 -10 -100 -19 -315
-101 -450 -172 -494 -258 -862 -721 -1004 -1262 -14 -52 -28 -111 -31 -130 -3
-19 -8 -42 -10 -50 -27 -96 -27 -560 0 -660 2 -8 7 -30 10 -47 47 -281 197
-613 385 -853 286 -366 736 -648 1160 -727 14 -2 43 -8 65 -13 111 -25 463
-35 595 -18 459 61 847 250 1171 571 317 312 525 739 576 1177 10 81 10 408 1
477 -45 335 -148 611 -326 877 -236 351 -584 625 -972 764 -76 27 -177 60
-205 67 -10 2 -75 15 -110 21 -70 14 -163 25 -250 30 -55 3 -105 7 -112 9 -6
2 -13 2 -15 0z"/>
</g>
</svg>
